Coordinates
version=1
nRows=9
nColumns=36
inDegrees=yes

Units are S.I. units (second, meters, Newtons, ...)
If the header above contains a line with 'inDegrees', this indicates whether rotational values are in degrees (yes) or radians (no).

endheader
time	pelvis_tilt	pelvis_list	pelvis_rotation	pelvis_tx	pelvis_ty	pelvis_tz	hip_flexion_r	hip_adduction_r	hip_rotation_r	knee_angle_r	knee_angle_r_beta	ankle_angle_r	subtalar_angle_r	mtp_angle_r	hip_flexion_l	hip_adduction_l	hip_rotation_l	knee_angle_l	knee_angle_l_beta	ankle_angle_l	subtalar_angle_l	mtp_angle_l	lumbar_extension	lumbar_bending	lumbar_rotation	arm_flex_r	arm_add_r	arm_rot_r	elbow_flex_r	pro_sup_r	arm_flex_l	arm_add_l	arm_rot_l	elbow_flex_l	pro_sup_l
      4.39583330	     -5.36993074	     -0.74164977	     -0.16962714	      0.42469577	      0.91613297	     -0.05391946	      1.89485300	     -3.06095900	     -0.69958891	      1.66457171	      0.02905226	      5.01290438	    -22.31351648	     -7.49999987	      4.43703698	     -7.37121586	     -3.81213756	      1.79286825	      0.03129145	      5.53980317	     -6.40924007	     -7.49999987	      4.21799850	     -0.19879728	      0.30047805	    181.87642778	   -170.84075305	    197.87281210	     26.36061472	     63.23930213	    180.24328759	   -168.56574700	    193.67120395	     21.34034110	     62.98095470
      4.40000000	     -5.50887360	     -0.68308616	     -0.09384190	      0.42619808	      0.91583490	     -0.05422689	      1.98724216	     -3.09058036	     -0.75920750	      1.61052738	      0.02810901	      5.05315496	    -22.06441257	     -7.49999987	      4.59986924	     -7.29918023	     -3.80840651	      1.82357124	      0.03182732	      5.44830105	     -6.41715445	     -7.49999987	      4.35701603	     -0.25025005	      0.31884509	    181.94784671	   -170.42469364	    198.24543984	     26.71903863	     63.12214809	    180.31573403	   -168.13100199	    194.13457655	     21.57042300	     63.16400179
      4.40416670	     -5.43468034	     -0.66850565	      0.00799745	      0.42623582	      0.91787489	     -0.05347173	      1.80509907	     -3.09303634	     -1.01476003	      1.53274068	      0.02675137	      5.33781466	    -21.52420601	     -7.49999987	      4.52279100	     -7.27590556	     -3.73909804	      1.79188763	      0.03127434	      5.35160807	     -6.48589241	     -7.49999987	      4.06828213	     -0.20994140	      0.33172626	    182.12989237	   -170.05003296	    198.13588643	     27.12119295	     62.66430904	    180.46475457	   -167.87045549	    193.67335723	     21.85150882	     62.95046580
      4.40833330	     -5.56466651	     -0.63008075	      0.07110973	      0.42691821	      0.91903131	     -0.05660315	      1.87593497	     -3.14699142	     -0.97104192	      1.50277928	      0.02622845	      5.16509705	    -21.68422258	     -7.49999987	      4.65256742	     -7.20282659	     -3.68389639	      1.80186745	      0.03144852	      5.29752062	     -6.53143959	     -7.49999987	      4.13756636	     -0.16712746	      0.34386471	    182.26956875	   -169.58969125	    198.52406439	     27.41015998	     62.50675984	    180.57877096	   -167.51707493	    194.21100631	     22.05259712	     63.13626706
      4.41250000	     -5.58239039	     -0.60849464	      0.10352511	      0.43029180	      0.91735954	     -0.05445781	      1.81260006	     -3.15896344	     -0.95787897	      1.49152168	      0.02603196	      5.15175764	    -21.66321922	     -7.49999987	      4.61073538	     -7.17080389	     -3.67508834	      1.80049097	      0.03142450	      5.27702933	     -6.50572239	     -7.49999987	      4.24670570	     -0.18595926	      0.36383760	    182.35781937	   -169.32229763	    198.47887469	     27.42246997	     62.50280137	    180.61674948	   -167.22209765	    194.18338228	     22.04204487	     63.13676076
      4.41666670	     -5.58128212	     -0.55361582	      0.11012391	      0.42888300	      0.91992998	     -0.05354846	      1.69065491	     -3.21463100	     -1.05802462	      1.37946423	      0.02407619	      5.20965068	    -21.47204693	     -7.49999987	      4.48387352	     -7.09825042	     -3.72736912	      1.64055941	      0.02863316	      5.21680904	     -6.30672171	     -7.49999987	      4.25048754	     -0.28742806	      0.48172981	    182.28266800	   -168.95911551	    198.51979345	     27.98110176	     62.70714713	    180.64714224	   -166.77988601	    194.70281744	     22.41783387	     63.74905731
      4.42083330	     -5.50432434	     -0.54225233	      0.13153216	      0.42835556	      0.91916148	     -0.05301524	      1.53008576	     -3.21180745	     -1.07845182	      1.27976408	      0.02233610	      5.24325538	    -21.40556672	     -7.49999987	      4.33393093	     -7.08571676	     -3.70002356	      1.56842207	      0.02737413	      5.15677566	     -6.26118068	     -7.49999987	      4.14941997	     -0.36187719	      0.54069968	    182.35684038	   -168.73718648	    198.23880058	     28.22749222	     62.86825010	    180.74755015	   -166.44718310	    194.56206815	     22.59973589	     64.05533382
      4.42500000	     -5.53255899	     -0.52755667	      0.19676593	      0.42895208	      0.91567660	     -0.05426313	      1.51816426	     -3.24370588	     -1.08184694	      1.21460026	      0.02119877	      5.12412272	    -21.49506701	     -7.49999987	      4.34530430	     -7.05713349	     -3.67169168	      1.55447682	      0.02713074	      5.12019631	     -6.26587180	     -7.49999987	      4.23214474	     -0.38289775	      0.55049729	    182.51154476	   -168.35762341	    198.55422625	     28.40569543	     62.73276652	    180.85411312	   -166.09493416	    195.01386354	     22.70288224	     63.96922094
      4.42916670	     -5.56481546	     -0.53219011	      0.23097206	      0.42805119	      0.91619554	     -0.05412547	      1.54001326	     -3.25406324	     -1.11638415	      1.15301020	      0.02012382	      5.10419746	    -21.51893903	     -7.49999987	      4.36690714	     -7.05979960	     -3.68546137	      1.51813245	      0.02649641	      5.11879836	     -6.30023902	     -7.49999987	      4.27608828	     -0.39979852	      0.60641631	    182.64619294	   -168.00157831	    198.68930358	     28.65037649	     62.89141937	    181.03619110	   -165.77860023	    195.33439632	     22.75665390	     64.29308131
